<?xml version="1.0" encoding="UTF-8"?>
<svg xmlns="http://www.w3.org/2000/svg" xmlns:xlink="http://www.w3.org/1999/xlink" viewBox="0 0 100 100" width="100px" height="100px">
<g id="surface37377651">
<path style=" stroke:none;fill-rule:nonzero;fill:rgb(0%,16.862746%,51.764709%);fill-opacity:1;" d="M 28 8 C 16.976562 8 8 16.976562 8 28 L 8 72 C 8 83.023438 16.976562 92 28 92 L 72 92 C 83.023438 92 92 83.023438 92 72 L 92 28 C 92 16.976562 83.023438 8 72 8 Z M 26 32 L 74 32 C 74.359375 32 74.699219 32.039062 75.019531 32.140625 L 55.359375 51.78125 C 52.398438 54.742188 47.582031 54.742188 44.621094 51.78125 L 24.980469 32.140625 C 25.300781 32.039062 25.640625 32 26 32 Z M 22.140625 34.980469 L 37.179688 50 L 22.140625 65.019531 C 22.039062 64.699219 22 64.359375 22 64 L 22 36 C 22 35.640625 22.039062 35.300781 22.140625 34.980469 Z M 77.859375 34.980469 C 77.960938 35.300781 78 35.640625 78 36 L 78 64 C 78 64.359375 77.960938 64.699219 77.859375 65.019531 L 62.800781 50 Z M 40 52.820312 L 41.78125 54.621094 C 44.042969 56.882812 47.019531 58 49.980469 58 C 52.960938 58 55.917969 56.882812 58.179688 54.621094 L 59.980469 52.820312 L 75.019531 67.859375 C 74.699219 67.960938 74.359375 68 74 68 L 26 68 C 25.640625 68 25.300781 67.960938 24.980469 67.859375 Z M 40 52.820312 "/>
</g>
</svg>
